<?xml version="1.0" standalone="no"?>
<!DOCTYPE svg PUBLIC "-//W3C//DTD SVG 20010904//EN"
 "http://www.w3.org/TR/2001/REC-SVG-20010904/DTD/svg10.dtd">
<svg version="1.0" xmlns="http://www.w3.org/2000/svg"
 width="24.000000pt" height="24.000000pt" viewBox="0 0 24.000000 24.000000"
 preserveAspectRatio="xMidYMid meet">

<g transform="translate(0.000000,24.000000) scale(0.100000,-0.100000)"
fill="#000000" stroke="none">
<path d="M46 194 c-33 -33 -5 -90 40 -81 17 3 34 -7 65 -39 23 -24 46 -41 51
-38 4 3 6 10 2 15 -3 5 -1 16 6 24 7 8 7 15 1 19 -5 4 -12 2 -16 -4 -3 -5 -11
-10 -17 -10 -7 0 -6 5 1 14 8 9 8 16 2 20 -5 4 -13 1 -16 -4 -12 -19 -43 18
-38 44 9 45 -48 73 -81 40z m59 -34 c0 -18 -6 -26 -23 -28 -13 -2 -25 3 -28
12 -10 26 4 48 28 44 17 -2 23 -10 23 -28z"/>
</g>
</svg>
